<svg width="432" height="432" viewBox="0 0 432 432" fill="none" xmlns="http://www.w3.org/2000/svg">
<circle cx="216" cy="216" r="216" fill="#17DF99"/>
<path d="M178.689 177.302H128.764C125.822 177.302 123 176.133 120.919 174.052C118.839 171.972 117.67 169.15 117.67 166.208V116.283C117.67 113.341 118.839 110.519 120.919 108.438C123 106.358 125.822 105.189 128.764 105.189C131.707 105.189 134.529 106.358 136.609 108.438C138.69 110.519 139.859 113.341 139.859 116.283V155.113H178.689C181.631 155.113 184.453 156.282 186.534 158.363C188.614 160.443 189.783 163.265 189.783 166.208C189.783 169.15 188.614 171.972 186.534 174.052C184.453 176.133 181.631 177.302 178.689 177.302Z" fill="white"/>
<path d="M315.981 227.226C313.039 227.226 310.217 226.058 308.136 223.977C306.056 221.896 304.887 219.074 304.887 216.132C304.895 196.601 298.457 177.613 286.571 162.115C274.685 146.617 258.016 135.475 239.151 130.419C220.286 125.362 200.279 126.674 182.235 134.15C164.192 141.626 149.12 154.849 139.359 171.766C137.885 174.312 135.46 176.169 132.616 176.928C129.773 177.686 126.745 177.284 124.199 175.81C121.652 174.336 119.795 171.91 119.037 169.067C118.279 166.224 118.681 163.196 120.155 160.649C132.361 139.506 151.204 122.982 173.761 113.641C196.317 104.3 221.325 102.664 244.906 108.987C268.487 115.31 289.322 129.238 304.179 148.611C319.036 167.984 327.084 191.718 327.075 216.132C327.075 219.074 325.907 221.896 323.826 223.977C321.745 226.058 318.923 227.226 315.981 227.226ZM303.5 327.075C300.558 327.075 297.736 325.907 295.655 323.826C293.574 321.745 292.406 318.924 292.406 315.981V277.151H253.575C250.633 277.151 247.811 275.982 245.73 273.902C243.65 271.821 242.481 268.999 242.481 266.057C242.481 263.114 243.65 260.292 245.73 258.212C247.811 256.131 250.633 254.962 253.575 254.962H303.5C306.442 254.962 309.264 256.131 311.345 258.212C313.425 260.292 314.594 263.114 314.594 266.057V315.981C314.594 318.924 313.425 321.745 311.345 323.826C309.264 325.907 306.442 327.075 303.5 327.075Z" fill="white"/>
<path d="M216.132 327.075C186.717 327.046 158.515 315.348 137.715 294.548C116.916 273.749 105.218 245.547 105.188 216.132C105.188 213.19 106.357 210.368 108.438 208.287C110.519 206.207 113.34 205.038 116.283 205.038C119.225 205.038 122.047 206.207 124.128 208.287C126.208 210.368 127.377 213.19 127.377 216.132C127.369 235.663 133.807 254.651 145.693 270.149C157.579 285.647 174.248 296.789 193.113 301.846C211.978 306.902 231.985 305.59 250.029 298.114C268.072 290.638 283.144 277.416 292.905 260.498C293.635 259.237 294.606 258.133 295.763 257.247C296.92 256.361 298.24 255.712 299.647 255.337C301.055 254.961 302.523 254.867 303.967 255.058C305.412 255.25 306.804 255.725 308.065 256.454C309.326 257.184 310.431 258.156 311.317 259.312C312.202 260.469 312.851 261.789 313.227 263.197C313.602 264.605 313.697 266.073 313.505 267.517C313.313 268.962 312.839 270.354 312.109 271.615C302.353 288.441 288.358 302.416 271.518 312.147C254.678 321.878 235.581 327.025 216.132 327.075Z" fill="white"/>
</svg>
